<svg width="21" height="23" viewBox="0 0 21 23" fill="none" xmlns="http://www.w3.org/2000/svg">
<path d="M8.57576 19.0977C10.4785 19.0973 12.3264 18.388 13.8252 17.0829L18.5376 22.33L20.0533 20.6422L15.341 15.3951C16.5137 13.7261 17.1511 11.668 17.1515 9.54886C17.1515 4.28386 13.3042 0 8.57576 0C3.8473 0 0 4.28386 0 9.54886C0 14.8139 3.8473 19.0977 8.57576 19.0977ZM8.57576 2.38721C12.1229 2.38721 15.0076 5.59921 15.0076 9.54886C15.0076 13.4985 12.1229 16.7105 8.57576 16.7105C5.02861 16.7105 2.14394 13.4985 2.14394 9.54886C2.14394 5.59921 5.02861 2.38721 8.57576 2.38721Z" fill="#6C757D"/>
</svg>
